<svg xmlns="http://www.w3.org/2000/svg" xmlns:xlink="http://www.w3.org/1999/xlink" viewBox="0 0 100 100">
  <defs>
    <style>
      .cls-1, .cls-3, .cls-4, .cls-6, .cls-7, .cls-8 {
        fill: none;
      }

      .cls-2 {
        fill: #7e3e3d;
      }

      .cls-3 {
        stroke: #7e3e3d;
      }

      .cls-3, .cls-4, .cls-6, .cls-7, .cls-8 {
        stroke-miterlimit: 10;
      }

      .cls-4 {
        stroke: #766991;
      }

      .cls-5 {
        fill: #b75757;
      }

      .cls-6 {
        stroke: #b75757;
      }

      .cls-7 {
        stroke: #63926f;
      }

      .cls-8 {
        stroke: #f4df45;
      }

      .cls-9 {
        fill: #63926f;
      }

      .cls-10 {
        fill: url(#New_Pattern_2);
      }
    </style>
    <pattern id="New_Pattern_2" data-name="New Pattern 2" width="99" height="100" patternUnits="userSpaceOnUse" viewBox="0 0 99 100">
      <rect class="cls-1" width="99" height="100"/>
      <polygon class="cls-2" points="51.043 4.654 51.957 6.505 54 6.802 52.522 8.243 52.871 10.278 51.043 9.317 49.216 10.278 49.565 8.243 48.087 6.802 50.13 6.505 51.043 4.654"/>
      <polygon class="cls-3" points="51.221 63.412 50.882 67.194 53.805 69.619 50.102 70.464 48.7 73.994 46.752 70.734 42.962 70.491 45.46 67.63 44.52 63.951 48.012 65.443 51.221 63.412"/>
      <polygon class="cls-2" points="13.578 35.654 15.583 39.718 20.068 40.37 16.823 43.533 17.589 48 13.578 45.891 9.566 48 10.332 43.533 7.087 40.37 11.572 39.718 13.578 35.654"/>
      <polygon class="cls-4" points="83.526 27.654 85.207 31.06 88.965 31.606 86.246 34.257 86.888 38 83.526 36.233 80.164 38 80.806 34.257 78.087 31.606 81.845 31.06 83.526 27.654"/>
      <circle class="cls-5" cx="11.5" cy="20.5" r="9.5"/>
      <circle class="cls-5" cx="23" cy="6" r="4"/>
      <circle class="cls-5" cx="54" cy="93" r="5"/>
      <circle class="cls-6" cx="88.25" cy="54.25" r="8.25"/>
      <circle class="cls-6" cx="90" cy="9" r="3.5"/>
      <path class="cls-7" d="M66.564,33.12,53.879,20.436a2.031,2.031,0,0,1,0-2.872L66.564,4.88a2.031,2.031,0,0,1,2.872,0L82.12,17.564a2.031,2.031,0,0,1,0,2.872L69.436,33.12A2.031,2.031,0,0,1,66.564,33.12Z"/>
      <path class="cls-4" d="M27.071,62.974,11.742,89.526A1.649,1.649,0,0,0,13.17,92H43.83a1.649,1.649,0,0,0,1.428-2.474L29.928,62.974A1.65,1.65,0,0,0,27.071,62.974Z"/>
      <polyline class="cls-8" points="31.694 22.055 30.904 31.243 39.232 27.282 38.444 36.471 46.78 32.516 45.998 41.708"/>
      <polyline class="cls-8" points="28.562 26.041 27.773 35.229 36.101 31.268 35.313 40.457 43.648 36.502 42.866 45.695"/>
      <polyline class="cls-8" points="66.844 79.682 72.073 87.682 77.3 79.682 82.531 87.682 87.765 79.682 93 87.682"/>
      <polyline class="cls-8" points="66.5 89 71.729 97 76.956 89 82.187 97 87.421 89 92.656 97"/>
      <path class="cls-9" d="M42.786,24.342l-3.907-3.906a2.031,2.031,0,0,1,0-2.872l3.907-3.906a2.031,2.031,0,0,1,2.872,0l3.906,3.906a2.031,2.031,0,0,1,0,2.872l-3.906,3.906A2.031,2.031,0,0,1,42.786,24.342Z"/>
      <path class="cls-9" d="M69.786,79.342l-6.907-6.906a2.031,2.031,0,0,1,0-2.872l6.907-6.906a2.031,2.031,0,0,1,2.872,0l6.906,6.906a2.031,2.031,0,0,1,0,2.872l-6.906,6.906A2.031,2.031,0,0,1,69.786,79.342Z"/>
      <path class="cls-4" d="M7.228,54.974,4.742,59.281A1.649,1.649,0,0,0,6.17,61.755h4.973a1.649,1.649,0,0,0,1.428-2.474l-2.486-4.307A1.65,1.65,0,0,0,7.228,54.974Z"/>
      <path class="cls-4" d="M61.228,48.974l-2.486,4.307a1.649,1.649,0,0,0,1.428,2.474h4.973a1.649,1.649,0,0,0,1.428-2.474l-2.486-4.307A1.65,1.65,0,0,0,61.228,48.974Z"/>
      <path class="cls-7" d="M30.786,55.342l-1.907-1.906a2.031,2.031,0,0,1,0-2.872l1.907-1.906a2.031,2.031,0,0,1,2.872,0l1.906,1.906a2.031,2.031,0,0,1,0,2.872l-1.906,1.906A2.031,2.031,0,0,1,30.786,55.342Z"/>
      <path class="cls-8" d="M7.228,74.974,4.742,79.281A1.649,1.649,0,0,0,6.17,81.755h4.973a1.649,1.649,0,0,0,1.428-2.474l-2.486-4.307A1.65,1.65,0,0,0,7.228,74.974Z"/>
    </pattern>
  </defs>
  <title>Asset 2</title>
  <g id="Layer_2" data-name="Layer 2">
    <g id="Layer_2-2" data-name="Layer 2">
      <rect class="cls-10" width="100" height="100"/>
    </g>
  </g>
</svg>
